<svg width="14" height="14" viewBox="0 0 14 14" fill="none" xmlns="http://www.w3.org/2000/svg">
<circle cx="7" cy="7" r="7" fill="#0E207F"/>
<path fill-rule="evenodd" clip-rule="evenodd" d="M9.78854 4.2632C9.87061 4.37817 9.91671 4.53408 9.91671 4.69664C9.91671 4.8592 9.87061 5.01511 9.78854 5.13008L6.50755 9.72524C6.46419 9.78598 6.41271 9.83416 6.35606 9.86704C6.2994 9.89991 6.23867 9.91683 6.17735 9.91683C6.11602 9.91683 6.0553 9.89991 5.99864 9.86704C5.94198 9.83416 5.89051 9.78598 5.84715 9.72524L4.21701 7.44258C4.1752 7.38603 4.14185 7.31838 4.11891 7.24358C4.09597 7.16878 4.0839 7.08834 4.08339 7.00693C4.08289 6.92553 4.09396 6.8448 4.11597 6.76946C4.13798 6.69411 4.17048 6.62566 4.21158 6.5681C4.25269 6.51054 4.30156 6.46501 4.35536 6.43419C4.40915 6.40336 4.46679 6.38785 4.52492 6.38856C4.58304 6.38927 4.64048 6.40618 4.69388 6.43831C4.74729 6.47044 4.79559 6.51714 4.83597 6.5757L6.1772 8.45414L9.16929 4.2632C9.20994 4.20623 9.25821 4.16104 9.31134 4.1302C9.36446 4.09937 9.42141 4.0835 9.47892 4.0835C9.53643 4.0835 9.59337 4.09937 9.6465 4.1302C9.69962 4.16104 9.74789 4.20623 9.78854 4.2632Z" fill="white"/>
</svg>
